<svg xmlns="http://www.w3.org/2000/svg" width="111" height="13" viewBox="0 0 111 13" fill="none">
<path d="M4.328 12.2C3.87467 12.2 3.352 12.1413 2.76 12.024C2.168 11.9067 1.56 11.6933 0.936 11.384L1.632 10.072C2.13867 10.3173 2.63467 10.4907 3.12 10.592C3.61067 10.6933 4.05067 10.744 4.44 10.744C5.08533 10.744 5.62133 10.5787 6.048 10.248C6.47467 9.91733 6.71733 9.52 6.776 9.056C6.81867 8.69867 6.75733 8.38933 6.592 8.128C6.432 7.86667 6.20267 7.62933 5.904 7.416C5.61067 7.19733 5.28267 6.992 4.92 6.8C4.56267 6.60267 4.20533 6.39467 3.848 6.176C3.49067 5.952 3.168 5.704 2.88 5.432C2.592 5.15467 2.37333 4.832 2.224 4.464C2.07467 4.09067 2.032 3.65067 2.096 3.144C2.17067 2.50933 2.38667 1.97067 2.744 1.528C3.10133 1.08533 3.552 0.746666 4.096 0.511999C4.64 0.277333 5.22933 0.16 5.864 0.16C6.344 0.16 6.81067 0.194666 7.264 0.263999C7.72267 0.333332 8.25067 0.469333 8.848 0.672L8.16 1.968C7.712 1.82933 7.296 1.73333 6.912 1.68C6.528 1.62133 6.17067 1.592 5.84 1.592C5.31733 1.592 4.888 1.73067 4.552 2.008C4.22133 2.28533 4.032 2.624 3.984 3.024C3.94133 3.408 4.032 3.74133 4.256 4.024C4.48 4.30133 4.784 4.55733 5.168 4.792C5.55733 5.02667 5.968 5.26933 6.4 5.52C6.832 5.76533 7.23467 6.04267 7.608 6.352C7.98133 6.66133 8.272 7.032 8.48 7.464C8.69333 7.896 8.76267 8.41867 8.688 9.032C8.61333 9.66133 8.384 10.2133 8 10.688C7.616 11.1627 7.10933 11.5333 6.48 11.8C5.856 12.0667 5.13867 12.2 4.328 12.2ZM13.3338 12L9.25375 0.367999H11.3818L14.2698 9.48L14.3818 10.056L14.5018 9.496L17.3898 0.367999H19.4458L15.3978 12H13.3338ZM20.0433 12L24.2273 0.367999H26.1713L30.3553 12H28.2753L25.2513 3.064L25.1313 2.52L24.9953 3.088L23.4673 7.616L23.2833 7.936L23.5073 7.904H25.0833C25.3766 7.904 25.6193 7.97867 25.8113 8.128C26.0086 8.27733 26.1686 8.46667 26.2913 8.696C26.4193 8.92 26.5206 9.14133 26.5953 9.36H22.9073L22.0113 12H20.0433ZM32.2274 12V0.511999C32.734 0.421333 33.1767 0.349333 33.5554 0.296C33.9394 0.242666 34.2994 0.205333 34.6354 0.183999C34.9767 0.157332 35.342 0.143999 35.7314 0.143999C36.574 0.143999 37.3314 0.290666 38.0034 0.584C38.6754 0.877333 39.2034 1.288 39.5874 1.816C39.9767 2.344 40.1714 2.96 40.1714 3.664C40.1714 4.29867 40.0114 4.856 39.6914 5.336C39.3767 5.816 38.966 6.19733 38.4594 6.48L38.0354 6.64L38.3794 6.792C38.7314 7.064 39.0034 7.38933 39.1954 7.768C39.3927 8.14667 39.5554 8.56533 39.6834 9.024C39.8114 9.47733 39.9447 9.95733 40.0834 10.464C40.222 10.9653 40.4114 11.4773 40.6514 12H38.5874C38.39 11.5733 38.23 11.12 38.1074 10.64C37.9847 10.1547 37.8594 9.68267 37.7314 9.224C37.6087 8.76 37.4487 8.344 37.2514 7.976C37.054 7.60267 36.782 7.31467 36.4354 7.112C36.1794 7.13333 35.918 7.136 35.6514 7.12C35.39 7.104 35.118 7.056 34.8354 6.976C34.9154 6.784 35.0194 6.592 35.1474 6.4C35.2754 6.208 35.4274 6.048 35.6034 5.92C35.7847 5.78667 35.9927 5.712 36.2274 5.696C36.5474 5.68 36.8487 5.58133 37.1314 5.4C37.4194 5.21867 37.6514 4.97867 37.8274 4.68C38.0087 4.38133 38.0994 4.04 38.0994 3.656C38.0994 3.26667 37.9927 2.91733 37.7794 2.608C37.5714 2.29867 37.286 2.056 36.9234 1.88C36.566 1.69867 36.1687 1.608 35.7314 1.608C35.438 1.608 35.1954 1.616 35.0034 1.632C34.8114 1.64267 34.5527 1.672 34.2274 1.72V12H32.2274ZM44.8661 12V1.824H41.6901V0.367999H50.0341V1.824H46.8501V12H44.8661ZM50.6995 12L54.8835 0.367999H56.8275L61.0115 12H58.9315L55.9075 3.064L55.7875 2.52L55.6515 3.088L54.1235 7.616L53.9395 7.936L54.1635 7.904H55.7395C56.0328 7.904 56.2755 7.97867 56.4675 8.128C56.6648 8.27733 56.8248 8.46667 56.9475 8.696C57.0755 8.92 57.1768 9.14133 57.2515 9.36H53.5635L52.6675 12H50.6995ZM62.8676 12V0.367999H64.8756V10.528H69.3316L69.3236 12H62.8676ZM78.6335 12V6.624H73.9055C73.9748 6.4 74.0708 6.176 74.1935 5.952C74.3215 5.728 74.4842 5.544 74.6815 5.4C74.8788 5.25067 75.1215 5.176 75.4095 5.176H78.6335V0.367999H80.6095V12H78.6335ZM71.3055 12V0.367999H73.2975V12H71.3055ZM83.3211 12V0.367999H90.1611V1.824H85.3131V10.544H90.4091V12H83.3211ZM85.9211 6.608C85.9905 6.38933 86.0865 6.17067 86.2091 5.952C86.3371 5.728 86.4998 5.544 86.6971 5.4C86.8998 5.256 87.1451 5.184 87.4331 5.184H89.6171V6.608H85.9211ZM92.6493 12V0.367999H94.5773V12H92.6493ZM97.1051 12L98.2971 0.367999H100.833L103.601 9.488L103.713 10.032L103.833 9.488L106.585 0.367999H109.137L110.297 12H108.449L107.713 3.024L107.665 2.288L107.473 3.024L104.697 11.84H102.705L99.9051 3.008L99.7051 2.288L99.6571 3.008L98.9451 12H97.1051Z" fill="white"/>
</svg>